<?xml version="1.0" encoding="UTF-8" standalone="no"?>
<!DOCTYPE svg PUBLIC "-//W3C//DTD SVG 1.1//EN" "http://www.w3.org/Graphics/SVG/1.1/DTD/svg11.dtd">
<svg version="1.1" xmlns="http://www.w3.org/2000/svg" xmlns:xlink="http://www.w3.org/1999/xlink" preserveAspectRatio="xMidYMid meet" viewBox="0 0 110 110" width="110" height="110"><defs><path d="M55 5C27.39 5 5 27.39 5 55C5 82.61 27.39 105 55 105C82.61 105 105 82.61 105 55C105 27.39 82.61 5 55 5Z" id="aaTevehKt"></path><path d="M21.95 31.67L88.05 31.67L88.05 48.31L63.32 48.31L63.32 88.89L46.68 88.89L46.68 48.31L21.95 48.31L21.95 31.67Z" id="c1agYlDHI"></path></defs><g><g><g><g><filter id="shadow7330479" x="-4" y="-4" width="119" height="119" filterUnits="userSpaceOnUse" primitiveUnits="userSpaceOnUse"><feFlood></feFlood><feComposite in2="SourceAlpha" operator="in"></feComposite><feGaussianBlur stdDeviation="1"></feGaussianBlur><feOffset dx="1" dy="1" result="afterOffset"></feOffset><feFlood flood-color="#ffffff" flood-opacity="0.5"></feFlood><feComposite in2="afterOffset" operator="in"></feComposite><feMorphology operator="dilate" radius="1"></feMorphology><feComposite in2="SourceAlpha" operator="out"></feComposite></filter><path d="M55 5C27.39 5 5 27.39 5 55C5 82.61 27.39 105 55 105C82.61 105 105 82.61 105 55C105 27.39 82.61 5 55 5Z" id="c3yRQdkDY" fill="white" fill-opacity="1" filter="url(#shadow7330479)"></path></g><use xlink:href="#aaTevehKt" opacity="1" fill="#ffffff" fill-opacity="0"></use><g><use xlink:href="#aaTevehKt" opacity="1" fill-opacity="0" stroke="#ffffff" stroke-width="4.4" stroke-opacity="1"></use></g><g><filter id="shadow2526895" x="-4" y="-4" width="119" height="119" filterUnits="userSpaceOnUse" primitiveUnits="userSpaceOnUse"><feFlood></feFlood><feComposite in2="SourceAlpha" operator="out"></feComposite><feGaussianBlur stdDeviation="1"></feGaussianBlur><feOffset dx="1" dy="1" result="afterOffset"></feOffset><feFlood flood-color="#ffffff" flood-opacity="0.5"></feFlood><feComposite in2="afterOffset" operator="in"></feComposite><feMorphology operator="dilate" radius="1"></feMorphology><feComposite in2="SourceAlpha" operator="in"></feComposite></filter><path d="M55 5C27.39 5 5 27.39 5 55C5 82.61 27.39 105 55 105C82.61 105 105 82.61 105 55C105 27.39 82.61 5 55 5Z" id="hDanbbScO" fill="white" fill-opacity="1" filter="url(#shadow2526895)"></path></g></g><g><use xlink:href="#c1agYlDHI" opacity="1" fill="#ffffff" fill-opacity="1"></use><g><use xlink:href="#c1agYlDHI" opacity="1" fill-opacity="0" stroke="#000000" stroke-width="1" stroke-opacity="0"></use></g></g></g></g></svg>