<svg width="20" height="18" viewBox="0 0 20 18" fill="none" xmlns="http://www.w3.org/2000/svg">
<g clip-path="url(#clip0)">
<path d="M9.90572 18C9.90572 18 16.9104 11.6033 16.9104 6.75C16.9104 4.95979 16.1724 3.2429 14.8588 1.97703C13.5452 0.711159 11.7635 0 9.90572 0C8.04795 0 6.26627 0.711159 4.95264 1.97703C3.639 3.2429 2.901 4.95979 2.901 6.75C2.901 11.6033 9.90572 18 9.90572 18ZM9.90572 10.125C8.97683 10.125 8.086 9.76942 7.42918 9.13649C6.77236 8.50355 6.40336 7.64511 6.40336 6.75C6.40336 5.85489 6.77236 4.99645 7.42918 4.36351C8.086 3.73058 8.97683 3.375 9.90572 3.375C10.8346 3.375 11.7254 3.73058 12.3823 4.36351C13.0391 4.99645 13.4081 5.85489 13.4081 6.75C13.4081 7.64511 13.0391 8.50355 12.3823 9.13649C11.7254 9.76942 10.8346 10.125 9.90572 10.125Z" fill="#BEBEBE"/>
</g>
<defs>
<clipPath id="clip0">
<rect width="18.6792" height="18" fill="white" transform="translate(0.56604)"/>
</clipPath>
</defs>
</svg>
